{
	"asset":{
		"generator":"Khronos glTF Blender I/O v5.0.21",
		"version":"2.0"
	},
	"extensionsUsed":[
		"KHR_materials_specular"
	],
	"scene":0,
	"scenes":[
		{
			"name":"Scene",
			"nodes":[
				0,
				1,
				2,
				3
			]
		}
	],
	"nodes":[
		{
			"name":"group6",
			"rotation":[
				0.7071068286895752,
				0,
				0,
				0.7071068286895752
			],
			"scale":[
				0.009999999776482582,
				0.009999999776482582,
				0.009999999776482582
			]
		},
		{
			"mesh":0,
			"name":"pSphere1"
		},
		{
			"mesh":1,
			"name":"Body"
		},
		{
			"mesh":2,
			"name":"pSphere2"
		}
	],
	"materials":[
		{
			"doubleSided":true,
			"extensions":{
				"KHR_materials_specular":{
					"specularColorFactor":[
						0.0,
						0.0,
						0.0
					]
				}
			},
			"name":"Vrchatman_Sclera",
			"pbrMetallicRoughness":{
				"baseColorFactor":[
					1,
					0.49163714051246643,
					0,
					1
				],
				"metallicFactor":0.2735042870044708,
				"roughnessFactor":0
			}
		},
		{
			"doubleSided":true,
			"extensions":{
				"KHR_materials_specular":{
					"specularColorFactor":[
						0.0,
						0.0,
						0.0
					]
				}
			},
			"name":"Vrchatman_Iris",
			"pbrMetallicRoughness":{
				"baseColorFactor":[
					0.14140290021896362,
					0.03933852165937424,
					0.02536962553858757,
					1
				],
				"metallicFactor":0.9743589758872986,
				"roughnessFactor":0.5527864098548889
			}
		},
		{
			"doubleSided":true,
			"extensions":{
				"KHR_materials_specular":{
					"specularColorFactor":[
						0.0,
						0.0,
						0.0
					]
				}
			},
			"name":"Vrchatman_Black",
			"pbrMetallicRoughness":{
				"baseColorFactor":[
					0,
					0,
					0,
					1
				],
				"metallicFactor":0,
				"roughnessFactor":0.5527864098548889
			}
		},
		{
			"doubleSided":true,
			"extensions":{
				"KHR_materials_specular":{
					"specularColorFactor":[
						0.0,
						0.0,
						0.0
					]
				}
			},
			"name":"phong2",
			"pbrMetallicRoughness":{
				"baseColorFactor":[
					0.5,
					0.5,
					0.5,
					1
				],
				"metallicFactor":0,
				"roughnessFactor":0.5527864098548889
			}
		},
		{
			"doubleSided":true,
			"extensions":{
				"KHR_materials_specular":{
					"specularColorFactor":[
						0.0,
						0.0,
						0.0
					]
				}
			},
			"name":"phong5",
			"pbrMetallicRoughness":{
				"baseColorFactor":[
					0.8760008811950684,
					0.3336731791496277,
					0.007641401141881943,
					1
				],
				"metallicFactor":0.8214285969734192,
				"roughnessFactor":0.2581435441970825
			}
		}
	],
	"meshes":[
		{
			"name":"Mesh",
			"primitives":[
				{
					"attributes":{
						"POSITION":0,
						"NORMAL":1,
						"TEXCOORD_0":2
					},
					"indices":3,
					"material":0
				},
				{
					"attributes":{
						"POSITION":4,
						"NORMAL":5,
						"TEXCOORD_0":6
					},
					"indices":7,
					"material":1
				},
				{
					"attributes":{
						"POSITION":8,
						"NORMAL":9,
						"TEXCOORD_0":10
					},
					"indices":11,
					"material":2
				}
			]
		},
		{
			"extras":{
				"targetNames":[
					"blink_left",
					"blink_right",
					"lowerlid_left",
					"lowerlid_right",
					"v_aa",
					"v_ch",
					"v_dd",
					"v_ee",
					"v_ff",
					"v_ih",
					"v_kk",
					"v_nn",
					"v_oh",
					"v_ou",
					"v_pp",
					"v_rr",
					"v_sil",
					"v_ss",
					"v_th"
				]
			},
			"name":"Mesh.002",
			"primitives":[
				{
					"attributes":{
						"POSITION":12,
						"NORMAL":13,
						"TEXCOORD_0":14
					},
					"indices":15,
					"material":3,
					"targets":[
						{
							"POSITION":16,
							"NORMAL":17
						},
						{
							"POSITION":18,
							"NORMAL":19
						},
						{
							"POSITION":20,
							"NORMAL":21
						},
						{
							"POSITION":22,
							"NORMAL":23
						},
						{
							"POSITION":24,
							"NORMAL":25
						},
						{
							"POSITION":26,
							"NORMAL":27
						},
						{
							"POSITION":28,
							"NORMAL":29
						},
						{
							"POSITION":30,
							"NORMAL":31
						},
						{
							"POSITION":32,
							"NORMAL":33
						},
						{
							"POSITION":34,
							"NORMAL":35
						},
						{
							"POSITION":36,
							"NORMAL":37
						},
						{
							"POSITION":38,
							"NORMAL":39
						},
						{
							"POSITION":40,
							"NORMAL":41
						},
						{
							"POSITION":42,
							"NORMAL":43
						},
						{
							"POSITION":44,
							"NORMAL":45
						},
						{
							"POSITION":46,
							"NORMAL":47
						},
						{
							"POSITION":48,
							"NORMAL":49
						},
						{
							"POSITION":50,
							"NORMAL":51
						},
						{
							"POSITION":52,
							"NORMAL":53
						}
					]
				},
				{
					"attributes":{
						"POSITION":54,
						"NORMAL":55,
						"TEXCOORD_0":56
					},
					"indices":57,
					"material":0,
					"targets":[
						{
							"POSITION":58,
							"NORMAL":59
						},
						{
							"POSITION":60,
							"NORMAL":61
						},
						{
							"POSITION":62,
							"NORMAL":63
						},
						{
							"POSITION":64,
							"NORMAL":65
						},
						{
							"POSITION":66,
							"NORMAL":67
						},
						{
							"POSITION":68,
							"NORMAL":69
						},
						{
							"POSITION":70,
							"NORMAL":71
						},
						{
							"POSITION":72,
							"NORMAL":73
						},
						{
							"POSITION":74,
							"NORMAL":75
						},
						{
							"POSITION":76,
							"NORMAL":77
						},
						{
							"POSITION":78,
							"NORMAL":79
						},
						{
							"POSITION":80,
							"NORMAL":81
						},
						{
							"POSITION":82,
							"NORMAL":83
						},
						{
							"POSITION":84,
							"NORMAL":85
						},
						{
							"POSITION":86,
							"NORMAL":87
						},
						{
							"POSITION":88,
							"NORMAL":89
						},
						{
							"POSITION":90,
							"NORMAL":91
						},
						{
							"POSITION":92,
							"NORMAL":93
						},
						{
							"POSITION":94,
							"NORMAL":95
						}
					]
				},
				{
					"attributes":{
						"POSITION":96,
						"NORMAL":97,
						"TEXCOORD_0":98
					},
					"indices":99,
					"material":4,
					"targets":[
						{
							"POSITION":100,
							"NORMAL":101
						},
						{
							"POSITION":102,
							"NORMAL":103
						},
						{
							"POSITION":104,
							"NORMAL":105
						},
						{
							"POSITION":106,
							"NORMAL":107
						},
						{
							"POSITION":108,
							"NORMAL":109
						},
						{
							"POSITION":110,
							"NORMAL":111
						},
						{
							"POSITION":112,
							"NORMAL":113
						},
						{
							"POSITION":114,
							"NORMAL":115
						},
						{
							"POSITION":116,
							"NORMAL":117
						},
						{
							"POSITION":118,
							"NORMAL":119
						},
						{
							"POSITION":120,
							"NORMAL":121
						},
						{
							"POSITION":122,
							"NORMAL":123
						},
						{
							"POSITION":124,
							"NORMAL":125
						},
						{
							"POSITION":126,
							"NORMAL":127
						},
						{
							"POSITION":128,
							"NORMAL":129
						},
						{
							"POSITION":130,
							"NORMAL":131
						},
						{
							"POSITION":132,
							"NORMAL":133
						},
						{
							"POSITION":134,
							"NORMAL":135
						},
						{
							"POSITION":136,
							"NORMAL":137
						}
					]
				}
			],
			"weights":[
				0,
				0,
				0,
				0,
				0,
				0,
				0,
				0,
				0,
				0,
				0,
				0,
				0,
				0,
				0,
				0,
				0,
				0,
				0
			]
		},
		{
			"name":"Mesh.001",
			"primitives":[
				{
					"attributes":{
						"POSITION":138,
						"NORMAL":139,
						"TEXCOORD_0":140
					},
					"indices":141,
					"material":0
				},
				{
					"attributes":{
						"POSITION":142,
						"NORMAL":143,
						"TEXCOORD_0":144
					},
					"indices":145,
					"material":1
				},
				{
					"attributes":{
						"POSITION":146,
						"NORMAL":147,
						"TEXCOORD_0":148
					},
					"indices":149,
					"material":2
				}
			]
		}
	],
	"accessors":[
		{
			"bufferView":0,
			"componentType":5126,
			"count":254,
			"max":[
				4.884498596191406,
				6.897258758544922,
				-17.99883270263672
			],
			"min":[
				1.423349380493164,
				3.554492950439453,
				-21.45848846435547
			],
			"type":"VEC3"
		},
		{
			"bufferView":1,
			"componentType":5126,
			"count":254,
			"type":"VEC3"
		},
		{
			"bufferView":2,
			"componentType":5126,
			"count":254,
			"type":"VEC2"
		},
		{
			"bufferView":3,
			"componentType":5123,
			"count":1296,
			"type":"SCALAR"
		},
		{
			"bufferView":4,
			"componentType":5126,
			"count":34,
			"max":[
				3.9359169006347656,
				7.0051116943359375,
				-18.900184631347656
			],
			"min":[
				2.3719329833984375,
				6.851478576660156,
				-20.46350860595703
			],
			"type":"VEC3"
		},
		{
			"bufferView":5,
			"componentType":5126,
			"count":34,
			"type":"VEC3"
		},
		{
			"bufferView":6,
			"componentType":5126,
			"count":34,
			"type":"VEC2"
		},
		{
			"bufferView":7,
			"componentType":5123,
			"count":96,
			"type":"SCALAR"
		},
		{
			"bufferView":8,
			"componentType":5126,
			"count":33,
			"max":[
				3.4129257202148438,
				7.0051116943359375,
				-19.41954803466797
			],
			"min":[
				2.8949241638183594,
				6.989948272705078,
				-19.937339782714844
			],
			"type":"VEC3"
		},
		{
			"bufferView":9,
			"componentType":5126,
			"count":33,
			"type":"VEC3"
		},
		{
			"bufferView":10,
			"componentType":5126,
			"count":33,
			"type":"VEC2"
		},
		{
			"bufferView":11,
			"componentType":5123,
			"count":48,
			"type":"SCALAR"
		},
		{
			"bufferView":12,
			"componentType":5126,
			"count":106,
			"max":[
				1.9366917610168457,
				6.168737411499023,
				-9.5789155960083
			],
			"min":[
				-1.9366917610168457,
				-0.3962218761444092,
				-12.171124458312988
			],
			"type":"VEC3"
		},
		{
			"bufferView":13,
			"componentType":5126,
			"count":106,
			"type":"VEC3"
		},
		{
			"bufferView":14,
			"componentType":5126,
			"count":106,
			"type":"VEC2"
		},
		{
			"bufferView":15,
			"componentType":5123,
			"count":504,
			"type":"SCALAR"
		},
		{
			"componentType":5126,
			"count":106,
			"max":[
				0,
				0,
				0
			],
			"min":[
				0,
				0,
				0
			],
			"sparse":{
				"count":1,
				"indices":{
					"bufferView":16,
					"componentType":5121
				},
				"values":{
					"bufferView":17
				}
			},
			"type":"VEC3"
		},
		{
			"bufferView":18,
			"componentType":5126,
			"count":106,
			"type":"VEC3"
		},
		{
			"componentType":5126,
			"count":106,
			"max":[
				0,
				0,
				0
			],
			"min":[
				0,
				0,
				0
			],
			"sparse":{
				"count":1,
				"indices":{
					"bufferView":19,
					"componentType":5121
				},
				"values":{
					"bufferView":20
				}
			},
			"type":"VEC3"
		},
		{
			"bufferView":21,
			"componentType":5126,
			"count":106,
			"type":"VEC3"
		},
		{
			"componentType":5126,
			"count":106,
			"max":[
				0,
				0,
				0
			],
			"min":[
				0,
				0,
				0
			],
			"sparse":{
				"count":1,
				"indices":{
					"bufferView":22,
					"componentType":5121
				},
				"values":{
					"bufferView":23
				}
			},
			"type":"VEC3"
		},
		{
			"bufferView":24,
			"componentType":5126,
			"count":106,
			"type":"VEC3"
		},
		{
			"componentType":5126,
			"count":106,
			"max":[
				0,
				0,
				0
			],
			"min":[
				0,
				0,
				0
			],
			"sparse":{
				"count":1,
				"indices":{
					"bufferView":25,
					"componentType":5121
				},
				"values":{
					"bufferView":26
				}
			},
			"type":"VEC3"
		},
		{
			"bufferView":27,
			"componentType":5126,
			"count":106,
			"type":"VEC3"
		},
		{
			"bufferView":28,
			"componentType":5126,
			"count":106,
			"max":[
				0,
				0,
				1.7031402587890625
			],
			"min":[
				0,
				-0.8240900039672852,
				0
			],
			"type":"VEC3"
		},
		{
			"bufferView":29,
			"componentType":5126,
			"count":106,
			"type":"VEC3"
		},
		{
			"bufferView":30,
			"componentType":5126,
			"count":106,
			"max":[
				0,
				0.18029922246932983,
				1.18951416015625
			],
			"min":[
				0,
				-0.15274906158447266,
				0.3179779052734375
			],
			"type":"VEC3"
		},
		{
			"bufferView":31,
			"componentType":5126,
			"count":106,
			"type":"VEC3"
		},
		{
			"bufferView":32,
			"componentType":5126,
			"count":106,
			"max":[
				0,
				0.18029922246932983,
				0.476348876953125
			],
			"min":[
				0,
				-0.15274906158447266,
				-1.23486328125
			],
			"type":"VEC3"
		},
		{
			"bufferView":33,
			"componentType":5126,
			"count":106,
			"type":"VEC3"
		},
		{
			"bufferView":34,
			"componentType":5126,
			"count":106,
			"max":[
				0,
				0.18029922246932983,
				1.18951416015625
			],
			"min":[
				0,
				-0.15274906158447266,
				0.3179779052734375
			],
			"type":"VEC3"
		},
		{
			"bufferView":35,
			"componentType":5126,
			"count":106,
			"type":"VEC3"
		},
		{
			"componentType":5126,
			"count":106,
			"max":[
				0,
				0,
				0
			],
			"min":[
				0,
				0,
				0
			],
			"sparse":{
				"count":1,
				"indices":{
					"bufferView":36,
					"componentType":5121
				},
				"values":{
					"bufferView":37
				}
			},
			"type":"VEC3"
		},
		{
			"bufferView":38,
			"componentType":5126,
			"count":106,
			"type":"VEC3"
		},
		{
			"bufferView":39,
			"componentType":5126,
			"count":106,
			"max":[
				0,
				0.18029922246932983,
				1.18951416015625
			],
			"min":[
				0,
				-0.15274906158447266,
				0.3179779052734375
			],
			"type":"VEC3"
		},
		{
			"bufferView":40,
			"componentType":5126,
			"count":106,
			"type":"VEC3"
		},
		{
			"bufferView":41,
			"componentType":5126,
			"count":106,
			"max":[
				0,
				0.18029922246932983,
				0.8589019775390625
			],
			"min":[
				0,
				-0.15274906158447266,
				-0.2165374755859375
			],
			"type":"VEC3"
		},
		{
			"bufferView":42,
			"componentType":5126,
			"count":106,
			"type":"VEC3"
		},
		{
			"bufferView":43,
			"componentType":5126,
			"count":106,
			"max":[
				0,
				0.18029922246932983,
				0.476348876953125
			],
			"min":[
				0,
				-0.15274906158447266,
				-1.23486328125
			],
			"type":"VEC3"
		},
		{
			"bufferView":44,
			"componentType":5126,
			"count":106,
			"type":"VEC3"
		},
		{
			"bufferView":45,
			"componentType":5126,
			"count":106,
			"max":[
				0,
				0,
				1.7031402587890625
			],
			"min":[
				0,
				-0.8240900039672852,
				0
			],
			"type":"VEC3"
		},
		{
			"bufferView":46,
			"componentType":5126,
			"count":106,
			"type":"VEC3"
		},
		{
			"bufferView":47,
			"componentType":5126,
			"count":106,
			"max":[
				0,
				0,
				1.7031402587890625
			],
			"min":[
				0,
				-0.8240900039672852,
				0
			],
			"type":"VEC3"
		},
		{
			"bufferView":48,
			"componentType":5126,
			"count":106,
			"type":"VEC3"
		},
		{
			"componentType":5126,
			"count":106,
			"max":[
				0,
				0,
				0
			],
			"min":[
				0,
				0,
				0
			],
			"sparse":{
				"count":1,
				"indices":{
					"bufferView":49,
					"componentType":5121
				},
				"values":{
					"bufferView":50
				}
			},
			"type":"VEC3"
		},
		{
			"bufferView":51,
			"componentType":5126,
			"count":106,
			"type":"VEC3"
		},
		{
			"bufferView":52,
			"componentType":5126,
			"count":106,
			"max":[
				0,
				0.18029922246932983,
				1.18951416015625
			],
			"min":[
				0,
				-0.15274906158447266,
				0.3179779052734375
			],
			"type":"VEC3"
		},
		{
			"bufferView":53,
			"componentType":5126,
			"count":106,
			"type":"VEC3"
		},
		{
			"componentType":5126,
			"count":106,
			"max":[
				0,
				0,
				0
			],
			"min":[
				0,
				0,
				0
			],
			"sparse":{
				"count":1,
				"indices":{
					"bufferView":54,
					"componentType":5121
				},
				"values":{
					"bufferView":55
				}
			},
			"type":"VEC3"
		},
		{
			"bufferView":56,
			"componentType":5126,
			"count":106,
			"type":"VEC3"
		},
		{
			"bufferView":57,
			"componentType":5126,
			"count":106,
			"max":[
				0,
				0.18029922246932983,
				1.18951416015625
			],
			"min":[
				0,
				-0.15274906158447266,
				0.3179779052734375
			],
			"type":"VEC3"
		},
		{
			"bufferView":58,
			"componentType":5126,
			"count":106,
			"type":"VEC3"
		},
		{
			"bufferView":59,
			"componentType":5126,
			"count":106,
			"max":[
				0.1772615909576416,
				2.008209705352783,
				0.5269927978515625
			],
			"min":[
				-0.1772615909576416,
				-0.15102845430374146,
				0.1993865966796875
			],
			"type":"VEC3"
		},
		{
			"bufferView":60,
			"componentType":5126,
			"count":106,
			"type":"VEC3"
		},
		{
			"bufferView":61,
			"componentType":5126,
			"count":180,
			"max":[
				3.2976601123809814,
				7.3138837814331055,
				-10.169018745422363
			],
			"min":[
				-3.2976601123809814,
				3.252068519592285,
				-13.182446479797363
			],
			"type":"VEC3"
		},
		{
			"bufferView":62,
			"componentType":5126,
			"count":180,
			"type":"VEC3"
		},
		{
			"bufferView":63,
			"componentType":5126,
			"count":180,
			"type":"VEC2"
		},
		{
			"bufferView":64,
			"componentType":5123,
			"count":408,
			"type":"SCALAR"
		},
		{
			"componentType":5126,
			"count":180,
			"max":[
				0,
				0,
				0
			],
			"min":[
				0,
				0,
				0
			],
			"sparse":{
				"count":1,
				"indices":{
					"bufferView":65,
					"componentType":5121
				},
				"values":{
					"bufferView":66
				}
			},
			"type":"VEC3"
		},
		{
			"componentType":5126,
			"count":180,
			"sparse":{
				"count":88,
				"indices":{
					"bufferView":67,
					"componentType":5121
				},
				"values":{
					"bufferView":68
				}
			},
			"type":"VEC3"
		},
		{
			"componentType":5126,
			"count":180,
			"max":[
				0,
				0,
				0
			],
			"min":[
				0,
				0,
				0
			],
			"sparse":{
				"count":1,
				"indices":{
					"bufferView":69,
					"componentType":5121
				},
				"values":{
					"bufferView":70
				}
			},
			"type":"VEC3"
		},
		{
			"componentType":5126,
			"count":180,
			"sparse":{
				"count":88,
				"indices":{
					"bufferView":71,
					"componentType":5121
				},
				"values":{
					"bufferView":72
				}
			},
			"type":"VEC3"
		},
		{
			"componentType":5126,
			"count":180,
			"max":[
				0,
				0,
				0
			],
			"min":[
				0,
				0,
				0
			],
			"sparse":{
				"count":1,
				"indices":{
					"bufferView":73,
					"componentType":5121
				},
				"values":{
					"bufferView":74
				}
			},
			"type":"VEC3"
		},
		{
			"componentType":5126,
			"count":180,
			"sparse":{
				"count":88,
				"indices":{
					"bufferView":75,
					"componentType":5121
				},
				"values":{
					"bufferView":76
				}
			},
			"type":"VEC3"
		},
		{
			"componentType":5126,
			"count":180,
			"max":[
				0,
				0,
				0
			],
			"min":[
				0,
				0,
				0
			],
			"sparse":{
				"count":1,
				"indices":{
					"bufferView":77,
					"componentType":5121
				},
				"values":{
					"bufferView":78
				}
			},
			"type":"VEC3"
		},
		{
			"componentType":5126,
			"count":180,
			"sparse":{
				"count":88,
				"indices":{
					"bufferView":79,
					"componentType":5121
				},
				"values":{
					"bufferView":80
				}
			},
			"type":"VEC3"
		},
		{
			"componentType":5126,
			"count":180,
			"max":[
				0,
				0,
				2.5188751220703125
			],
			"min":[
				0,
				-1.2089290618896484,
				0
			],
			"sparse":{
				"count":90,
				"indices":{
					"bufferView":81,
					"componentType":5121
				},
				"values":{
					"bufferView":82
				}
			},
			"type":"VEC3"
		},
		{
			"componentType":5126,
			"count":180,
			"sparse":{
				"count":134,
				"indices":{
					"bufferView":83,
					"componentType":5121
				},
				"values":{
					"bufferView":84
				}
			},
			"type":"VEC3"
		},
		{
			"componentType":5126,
			"count":180,
			"max":[
				0,
				0.1833944320678711,
				0.1862945556640625
			],
			"min":[
				0,
				-0.1833968162536621,
				-0.535552978515625
			],
			"sparse":{
				"count":90,
				"indices":{
					"bufferView":85,
					"componentType":5121
				},
				"values":{
					"bufferView":86
				}
			},
			"type":"VEC3"
		},
		{
			"componentType":5126,
			"count":180,
			"sparse":{
				"count":134,
				"indices":{
					"bufferView":87,
					"componentType":5121
				},
				"values":{
					"bufferView":88
				}
			},
			"type":"VEC3"
		},
		{
			"componentType":5126,
			"count":180,
			"max":[
				0,
				0.1833944320678711,
				1.2925262451171875
			],
			"min":[
				0,
				-0.1833968162536621,
				0
			],
			"sparse":{
				"count":90,
				"indices":{
					"bufferView":89,
					"componentType":5121
				},
				"values":{
					"bufferView":90
				}
			},
			"type":"VEC3"
		},
		{
			"componentType":5126,
			"count":180,
			"sparse":{
				"count":134,
				"indices":{
					"bufferView":91,
					"componentType":5121
				},
				"values":{
					"bufferView":92
				}
			},
			"type":"VEC3"
		},
		{
			"componentType":5126,
			"count":180,
			"max":[
				0,
				0,
				0.968841552734375
			],
			"min":[
				0,
				-0.7340579032897949,
				0
			],
			"sparse":{
				"count":90,
				"indices":{
					"bufferView":93,
					"componentType":5121
				},
				"values":{
					"bufferView":94
				}
			},
			"type":"VEC3"
		},
		{
			"componentType":5126,
			"count":180,
			"sparse":{
				"count":134,
				"indices":{
					"bufferView":95,
					"componentType":5121
				},
				"values":{
					"bufferView":96
				}
			},
			"type":"VEC3"
		},
		{
			"componentType":5126,
			"count":180,
			"max":[
				0,
				0.3000011444091797,
				0
			],
			"min":[
				0,
				0,
				0
			],
			"sparse":{
				"count":90,
				"indices":{
					"bufferView":97,
					"componentType":5121
				},
				"values":{
					"bufferView":98
				}
			},
			"type":"VEC3"
		},
		{
			"componentType":5126,
			"count":180,
			"sparse":{
				"count":88,
				"indices":{
					"bufferView":99,
					"componentType":5121
				},
				"values":{
					"bufferView":100
				}
			},
			"type":"VEC3"
		},
		{
			"componentType":5126,
			"count":180,
			"max":[
				0,
				0.1833944320678711,
				1.2925262451171875
			],
			"min":[
				0,
				-0.1833968162536621,
				0
			],
			"sparse":{
				"count":90,
				"indices":{
					"bufferView":101,
					"componentType":5121
				},
				"values":{
					"bufferView":102
				}
			},
			"type":"VEC3"
		},
		{
			"componentType":5126,
			"count":180,
			"sparse":{
				"count":134,
				"indices":{
					"bufferView":103,
					"componentType":5121
				},
				"values":{
					"bufferView":104
				}
			},
			"type":"VEC3"
		},
		{
			"componentType":5126,
			"count":180,
			"max":[
				0,
				0.1833944320678711,
				1.2925262451171875
			],
			"min":[
				0,
				-0.1833968162536621,
				0
			],
			"sparse":{
				"count":90,
				"indices":{
					"bufferView":105,
					"componentType":5121
				},
				"values":{
					"bufferView":106
				}
			},
			"type":"VEC3"
		},
		{
			"componentType":5126,
			"count":180,
			"sparse":{
				"count":134,
				"indices":{
					"bufferView":107,
					"componentType":5121
				},
				"values":{
					"bufferView":108
				}
			},
			"type":"VEC3"
		},
		{
			"componentType":5126,
			"count":180,
			"max":[
				0,
				0.1833944320678711,
				1.2925262451171875
			],
			"min":[
				0,
				-0.1833968162536621,
				0
			],
			"sparse":{
				"count":90,
				"indices":{
					"bufferView":109,
					"componentType":5121
				},
				"values":{
					"bufferView":110
				}
			},
			"type":"VEC3"
		},
		{
			"componentType":5126,
			"count":180,
			"sparse":{
				"count":134,
				"indices":{
					"bufferView":111,
					"componentType":5121
				},
				"values":{
					"bufferView":112
				}
			},
			"type":"VEC3"
		},
		{
			"componentType":5126,
			"count":180,
			"max":[
				0,
				0,
				2.5188751220703125
			],
			"min":[
				0,
				-1.2089290618896484,
				0
			],
			"sparse":{
				"count":90,
				"indices":{
					"bufferView":113,
					"componentType":5121
				},
				"values":{
					"bufferView":114
				}
			},
			"type":"VEC3"
		},
		{
			"componentType":5126,
			"count":180,
			"sparse":{
				"count":134,
				"indices":{
					"bufferView":115,
					"componentType":5121
				},
				"values":{
					"bufferView":116
				}
			},
			"type":"VEC3"
		},
		{
			"componentType":5126,
			"count":180,
			"max":[
				0,
				0,
				2.5188751220703125
			],
			"min":[
				0,
				-1.2089290618896484,
				0
			],
			"sparse":{
				"count":90,
				"indices":{
					"bufferView":117,
					"componentType":5121
				},
				"values":{
					"bufferView":118
				}
			},
			"type":"VEC3"
		},
		{
			"componentType":5126,
			"count":180,
			"sparse":{
				"count":134,
				"indices":{
					"bufferView":119,
					"componentType":5121
				},
				"values":{
					"bufferView":120
				}
			},
			"type":"VEC3"
		},
		{
			"componentType":5126,
			"count":180,
			"max":[
				0,
				0,
				0
			],
			"min":[
				0,
				0,
				0
			],
			"sparse":{
				"count":1,
				"indices":{
					"bufferView":121,
					"componentType":5121
				},
				"values":{
					"bufferView":122
				}
			},
			"type":"VEC3"
		},
		{
			"componentType":5126,
			"count":180,
			"sparse":{
				"count":88,
				"indices":{
					"bufferView":123,
					"componentType":5121
				},
				"values":{
					"bufferView":124
				}
			},
			"type":"VEC3"
		},
		{
			"componentType":5126,
			"count":180,
			"max":[
				0,
				0.1833944320678711,
				1.2925262451171875
			],
			"min":[
				0,
				-0.1833968162536621,
				0
			],
			"sparse":{
				"count":90,
				"indices":{
					"bufferView":125,
					"componentType":5121
				},
				"values":{
					"bufferView":126
				}
			},
			"type":"VEC3"
		},
		{
			"componentType":5126,
			"count":180,
			"sparse":{
				"count":134,
				"indices":{
					"bufferView":127,
					"componentType":5121
				},
				"values":{
					"bufferView":128
				}
			},
			"type":"VEC3"
		},
		{
			"componentType":5126,
			"count":180,
			"max":[
				0,
				0,
				0
			],
			"min":[
				0,
				0,
				0
			],
			"sparse":{
				"count":1,
				"indices":{
					"bufferView":129,
					"componentType":5121
				},
				"values":{
					"bufferView":130
				}
			},
			"type":"VEC3"
		},
		{
			"componentType":5126,
			"count":180,
			"sparse":{
				"count":88,
				"indices":{
					"bufferView":131,
					"componentType":5121
				},
				"values":{
					"bufferView":132
				}
			},
			"type":"VEC3"
		},
		{
			"componentType":5126,
			"count":180,
			"max":[
				0,
				0,
				0.1443939208984375
			],
			"min":[
				0,
				-0.5341715812683105,
				0
			],
			"sparse":{
				"count":90,
				"indices":{
					"bufferView":133,
					"componentType":5121
				},
				"values":{
					"bufferView":134
				}
			},
			"type":"VEC3"
		},
		{
			"componentType":5126,
			"count":180,
			"sparse":{
				"count":134,
				"indices":{
					"bufferView":135,
					"componentType":5121
				},
				"values":{
					"bufferView":136
				}
			},
			"type":"VEC3"
		},
		{
			"componentType":5126,
			"count":180,
			"max":[
				0,
				0.1833944320678711,
				1.2925262451171875
			],
			"min":[
				0,
				-0.1833968162536621,
				0
			],
			"sparse":{
				"count":90,
				"indices":{
					"bufferView":137,
					"componentType":5121
				},
				"values":{
					"bufferView":138
				}
			},
			"type":"VEC3"
		},
		{
			"componentType":5126,
			"count":180,
			"sparse":{
				"count":134,
				"indices":{
					"bufferView":139,
					"componentType":5121
				},
				"values":{
					"bufferView":140
				}
			},
			"type":"VEC3"
		},
		{
			"bufferView":141,
			"componentType":5126,
			"count":1357,
			"max":[
				9.51079273223877,
				10.940826416015625,
				-0.5989046096801758
			],
			"min":[
				-9.51079273223877,
				-12.369397163391113,
				-31.963069915771484
			],
			"type":"VEC3"
		},
		{
			"bufferView":142,
			"componentType":5126,
			"count":1357,
			"type":"VEC3"
		},
		{
			"bufferView":143,
			"componentType":5126,
			"count":1357,
			"type":"VEC2"
		},
		{
			"bufferView":144,
			"componentType":5123,
			"count":6990,
			"type":"SCALAR"
		},
		{
			"componentType":5126,
			"count":1357,
			"max":[
				0.0994710922241211,
				0.31914234161376953,
				1.0350189208984375
			],
			"min":[
				-0.03397178649902344,
				0,
				-0.297607421875
			],
			"sparse":{
				"count":95,
				"indices":{
					"bufferView":145,
					"componentType":5123
				},
				"values":{
					"bufferView":146
				}
			},
			"type":"VEC3"
		},
		{
			"bufferView":147,
			"componentType":5126,
			"count":1357,
			"type":"VEC3"
		},
		{
			"componentType":5126,
			"count":1357,
			"max":[
				0.0011807680130004883,
				0.30829906463623047,
				1.0124053955078125
			],
			"min":[
				-0.19650530815124512,
				-0.09480524063110352,
				-0.2718048095703125
			],
			"sparse":{
				"count":98,
				"indices":{
					"bufferView":148,
					"componentType":5123
				},
				"values":{
					"bufferView":149
				}
			},
			"type":"VEC3"
		},
		{
			"bufferView":150,
			"componentType":5126,
			"count":1357,
			"type":"VEC3"
		},
		{
			"componentType":5126,
			"count":1357,
			"max":[
				0,
				0,
				0
			],
			"min":[
				0,
				0,
				-0.297607421875
			],
			"sparse":{
				"count":63,
				"indices":{
					"bufferView":151,
					"componentType":5123
				},
				"values":{
					"bufferView":152
				}
			},
			"type":"VEC3"
		},
		{
			"bufferView":153,
			"componentType":5126,
			"count":1357,
			"type":"VEC3"
		},
		{
			"componentType":5126,
			"count":1357,
			"max":[
				0,
				0,
				0
			],
			"min":[
				0,
				0,
				-0.2718048095703125
			],
			"sparse":{
				"count":66,
				"indices":{
					"bufferView":154,
					"componentType":5123
				},
				"values":{
					"bufferView":155
				}
			},
			"type":"VEC3"
		},
		{
			"bufferView":156,
			"componentType":5126,
			"count":1357,
			"type":"VEC3"
		},
		{
			"componentType":5126,
			"count":1357,
			"max":[
				0.2964496612548828,
				0.034038543701171875,
				2.75604248046875
			],
			"min":[
				-0.3057173490524292,
				-1.69602632522583,
				-0.2711639404296875
			],
			"sparse":{
				"count":423,
				"indices":{
					"bufferView":157,
					"componentType":5123
				},
				"values":{
					"bufferView":158
				}
			},
			"type":"VEC3"
		},
		{
			"bufferView":159,
			"componentType":5126,
			"count":1357,
			"type":"VEC3"
		},
		{
			"componentType":5126,
			"count":1357,
			"max":[
				1.014087200164795,
				0.44853830337524414,
				1.000518798828125
			],
			"min":[
				-1.0123305320739746,
				-0.5553689002990723,
				-0.612396240234375
			],
			"sparse":{
				"count":370,
				"indices":{
					"bufferView":160,
					"componentType":5123
				},
				"values":{
					"bufferView":161
				}
			},
			"type":"VEC3"
		},
		{
			"bufferView":162,
			"componentType":5126,
			"count":1357,
			"type":"VEC3"
		},
		{
			"componentType":5126,
			"count":1357,
			"max":[
				0.24879717826843262,
				0.04309225082397461,
				0.853363037109375
			],
			"min":[
				-0.21305012702941895,
				-0.7102398872375488,
				-0.3045806884765625
			],
			"sparse":{
				"count":451,
				"indices":{
					"bufferView":163,
					"componentType":5123
				},
				"values":{
					"bufferView":164
				}
			},
			"type":"VEC3"
		},
		{
			"bufferView":165,
			"componentType":5126,
			"count":1357,
			"type":"VEC3"
		},
		{
			"componentType":5126,
			"count":1357,
			"max":[
				0.5616304874420166,
				0.0010955333709716797,
				0.9608001708984375
			],
			"min":[
				-0.5607693195343018,
				-2.1919760704040527,
				-0.4847259521484375
			],
			"sparse":{
				"count":427,
				"indices":{
					"bufferView":166,
					"componentType":5123
				},
				"values":{
					"bufferView":167
				}
			},
			"type":"VEC3"
		},
		{
			"bufferView":168,
			"componentType":5126,
			"count":1357,
			"type":"VEC3"
		},
		{
			"componentType":5126,
			"count":1357,
			"max":[
				0.16548538208007812,
				0.30071210861206055,
				0.4299468994140625
			],
			"min":[
				-0.16696083545684814,
				-2.1053390502929688,
				-0.4399566650390625
			],
			"sparse":{
				"count":372,
				"indices":{
					"bufferView":169,
					"componentType":5123
				},
				"values":{
					"bufferView":170
				}
			},
			"type":"VEC3"
		},
		{
			"bufferView":171,
			"componentType":5126,
			"count":1357,
			"type":"VEC3"
		},
		{
			"componentType":5126,
			"count":1357,
			"max":[
				0.24879717826843262,
				0.04309225082397461,
				1.2254486083984375
			],
			"min":[
				-0.21305012702941895,
				-0.7102398872375488,
				-0.191314697265625
			],
			"sparse":{
				"count":273,
				"indices":{
					"bufferView":172,
					"componentType":5123
				},
				"values":{
					"bufferView":173
				}
			},
			"type":"VEC3"
		},
		{
			"bufferView":174,
			"componentType":5126,
			"count":1357,
			"type":"VEC3"
		},
		{
			"componentType":5126,
			"count":1357,
			"max":[
				0.24879717826843262,
				0.04309225082397461,
				1.2254486083984375
			],
			"min":[
				-0.21305012702941895,
				-0.7102398872375488,
				-0.46246337890625
			],
			"sparse":{
				"count":304,
				"indices":{
					"bufferView":175,
					"componentType":5123
				},
				"values":{
					"bufferView":176
				}
			},
			"type":"VEC3"
		},
		{
			"bufferView":177,
			"componentType":5126,
			"count":1357,
			"type":"VEC3"
		},
		{
			"componentType":5126,
			"count":1357,
			"max":[
				0.24879717826843262,
				0.04309225082397461,
				1.2254486083984375
			],
			"min":[
				-0.21305012702941895,
				-0.7102398872375488,
				-0.191314697265625
			],
			"sparse":{
				"count":273,
				"indices":{
					"bufferView":178,
					"componentType":5123
				},
				"values":{
					"bufferView":179
				}
			},
			"type":"VEC3"
		},
		{
			"bufferView":180,
			"componentType":5126,
			"count":1357,
			"type":"VEC3"
		},
		{
			"componentType":5126,
			"count":1357,
			"max":[
				0.724846601486206,
				0.5793943405151367,
				2.85540771484375
			],
			"min":[
				-0.7332801818847656,
				-1.69602632522583,
				-0.1912078857421875
			],
			"sparse":{
				"count":423,
				"indices":{
					"bufferView":181,
					"componentType":5123
				},
				"values":{
					"bufferView":182
				}
			},
			"type":"VEC3"
		},
		{
			"bufferView":183,
			"componentType":5126,
			"count":1357,
			"type":"VEC3"
		},
		{
			"componentType":5126,
			"count":1357,
			"max":[
				1.5320689678192139,
				0.5415811538696289,
				2.657806396484375
			],
			"min":[
				-1.5404126644134521,
				-1.69602632522583,
				-0.1381378173828125
			],
			"sparse":{
				"count":427,
				"indices":{
					"bufferView":184,
					"componentType":5123
				},
				"values":{
					"bufferView":185
				}
			},
			"type":"VEC3"
		},
		{
			"bufferView":186,
			"componentType":5126,
			"count":1357,
			"type":"VEC3"
		},
		{
			"componentType":5126,
			"count":1357,
			"max":[
				0.26299333572387695,
				0.11015653610229492,
				0.708099365234375
			],
			"min":[
				-0.26299333572387695,
				-1.1124076843261719,
				-0.3924560546875
			],
			"sparse":{
				"count":254,
				"indices":{
					"bufferView":187,
					"componentType":5123
				},
				"values":{
					"bufferView":188
				}
			},
			"type":"VEC3"
		},
		{
			"bufferView":189,
			"componentType":5126,
			"count":1357,
			"type":"VEC3"
		},
		{
			"componentType":5126,
			"count":1357,
			"max":[
				1.014087200164795,
				0.44853830337524414,
				1.2254486083984375
			],
			"min":[
				-1.0123305320739746,
				-0.5553689002990723,
				-0.5856781005859375
			],
			"sparse":{
				"count":370,
				"indices":{
					"bufferView":190,
					"componentType":5123
				},
				"values":{
					"bufferView":191
				}
			},
			"type":"VEC3"
		},
		{
			"bufferView":192,
			"componentType":5126,
			"count":1357,
			"type":"VEC3"
		},
		{
			"componentType":5126,
			"count":1357,
			"max":[
				0,
				0,
				0
			],
			"min":[
				0,
				0,
				0
			],
			"sparse":{
				"count":1,
				"indices":{
					"bufferView":193,
					"componentType":5121
				},
				"values":{
					"bufferView":194
				}
			},
			"type":"VEC3"
		},
		{
			"bufferView":195,
			"componentType":5126,
			"count":1357,
			"type":"VEC3"
		},
		{
			"componentType":5126,
			"count":1357,
			"max":[
				0.4263761043548584,
				0.0010955333709716797,
				0.9608001708984375
			],
			"min":[
				-0.3842477798461914,
				-1.9524502754211426,
				-0.4913177490234375
			],
			"sparse":{
				"count":427,
				"indices":{
					"bufferView":196,
					"componentType":5123
				},
				"values":{
					"bufferView":197
				}
			},
			"type":"VEC3"
		},
		{
			"bufferView":198,
			"componentType":5126,
			"count":1357,
			"type":"VEC3"
		},
		{
			"componentType":5126,
			"count":1357,
			"max":[
				0.24879717826843262,
				0.04309225082397461,
				1.2254486083984375
			],
			"min":[
				-0.21305012702941895,
				-0.7102398872375488,
				-0.191314697265625
			],
			"sparse":{
				"count":273,
				"indices":{
					"bufferView":199,
					"componentType":5123
				},
				"values":{
					"bufferView":200
				}
			},
			"type":"VEC3"
		},
		{
			"bufferView":201,
			"componentType":5126,
			"count":1357,
			"type":"VEC3"
		},
		{
			"bufferView":202,
			"componentType":5126,
			"count":254,
			"max":[
				-1.423349380493164,
				6.897258758544922,
				-17.99883270263672
			],
			"min":[
				-4.884498596191406,
				3.554492950439453,
				-21.45848846435547
			],
			"type":"VEC3"
		},
		{
			"bufferView":203,
			"componentType":5126,
			"count":254,
			"type":"VEC3"
		},
		{
			"bufferView":204,
			"componentType":5126,
			"count":254,
			"type":"VEC2"
		},
		{
			"bufferView":205,
			"componentType":5123,
			"count":1296,
			"type":"SCALAR"
		},
		{
			"bufferView":206,
			"componentType":5126,
			"count":34,
			"max":[
				-2.3719329833984375,
				7.0051116943359375,
				-18.900184631347656
			],
			"min":[
				-3.9359169006347656,
				6.851478576660156,
				-20.46350860595703
			],
			"type":"VEC3"
		},
		{
			"bufferView":207,
			"componentType":5126,
			"count":34,
			"type":"VEC3"
		},
		{
			"bufferView":208,
			"componentType":5126,
			"count":34,
			"type":"VEC2"
		},
		{
			"bufferView":209,
			"componentType":5123,
			"count":96,
			"type":"SCALAR"
		},
		{
			"bufferView":210,
			"componentType":5126,
			"count":33,
			"max":[
				-2.8949241638183594,
				7.0051116943359375,
				-19.41954803466797
			],
			"min":[
				-3.4129257202148438,
				6.989948272705078,
				-19.937339782714844
			],
			"type":"VEC3"
		},
		{
			"bufferView":211,
			"componentType":5126,
			"count":33,
			"type":"VEC3"
		},
		{
			"bufferView":212,
			"componentType":5126,
			"count":33,
			"type":"VEC2"
		},
		{
			"bufferView":213,
			"componentType":5123,
			"count":48,
			"type":"SCALAR"
		}
	],
	"bufferViews":[
		{
			"buffer":0,
			"byteLength":3048,
			"byteOffset":0,
			"target":34962
		},
		{
			"buffer":0,
			"byteLength":3048,
			"byteOffset":3048,
			"target":34962
		},
		{
			"buffer":0,
			"byteLength":2032,
			"byteOffset":6096,
			"target":34962
		},
		{
			"buffer":0,
			"byteLength":2592,
			"byteOffset":8128,
			"target":34963
		},
		{
			"buffer":0,
			"byteLength":408,
			"byteOffset":10720,
			"target":34962
		},
		{
			"buffer":0,
			"byteLength":408,
			"byteOffset":11128,
			"target":34962
		},
		{
			"buffer":0,
			"byteLength":272,
			"byteOffset":11536,
			"target":34962
		},
		{
			"buffer":0,
			"byteLength":192,
			"byteOffset":11808,
			"target":34963
		},
		{
			"buffer":0,
			"byteLength":396,
			"byteOffset":12000,
			"target":34962
		},
		{
			"buffer":0,
			"byteLength":396,
			"byteOffset":12396,
			"target":34962
		},
		{
			"buffer":0,
			"byteLength":264,
			"byteOffset":12792,
			"target":34962
		},
		{
			"buffer":0,
			"byteLength":96,
			"byteOffset":13056,
			"target":34963
		},
		{
			"buffer":0,
			"byteLength":1272,
			"byteOffset":13152,
			"target":34962
		},
		{
			"buffer":0,
			"byteLength":1272,
			"byteOffset":14424,
			"target":34962
		},
		{
			"buffer":0,
			"byteLength":848,
			"byteOffset":15696,
			"target":34962
		},
		{
			"buffer":0,
			"byteLength":1008,
			"byteOffset":16544,
			"target":34963
		},
		{
			"buffer":0,
			"byteLength":1,
			"byteOffset":17552
		},
		{
			"buffer":0,
			"byteLength":12,
			"byteOffset":17556
		},
		{
			"buffer":0,
			"byteLength":1272,
			"byteOffset":17568,
			"target":34962
		},
		{
			"buffer":0,
			"byteLength":1,
			"byteOffset":18840
		},
		{
			"buffer":0,
			"byteLength":12,
			"byteOffset":18844
		},
		{
			"buffer":0,
			"byteLength":1272,
			"byteOffset":18856,
			"target":34962
		},
		{
			"buffer":0,
			"byteLength":1,
			"byteOffset":20128
		},
		{
			"buffer":0,
			"byteLength":12,
			"byteOffset":20132
		},
		{
			"buffer":0,
			"byteLength":1272,
			"byteOffset":20144,
			"target":34962
		},
		{
			"buffer":0,
			"byteLength":1,
			"byteOffset":21416
		},
		{
			"buffer":0,
			"byteLength":12,
			"byteOffset":21420
		},
		{
			"buffer":0,
			"byteLength":1272,
			"byteOffset":21432,
			"target":34962
		},
		{
			"buffer":0,
			"byteLength":1272,
			"byteOffset":22704,
			"target":34962
		},
		{
			"buffer":0,
			"byteLength":1272,
			"byteOffset":23976,
			"target":34962
		},
		{
			"buffer":0,
			"byteLength":1272,
			"byteOffset":25248,
			"target":34962
		},
		{
			"buffer":0,
			"byteLength":1272,
			"byteOffset":26520,
			"target":34962
		},
		{
			"buffer":0,
			"byteLength":1272,
			"byteOffset":27792,
			"target":34962
		},
		{
			"buffer":0,
			"byteLength":1272,
			"byteOffset":29064,
			"target":34962
		},
		{
			"buffer":0,
			"byteLength":1272,
			"byteOffset":30336,
			"target":34962
		},
		{
			"buffer":0,
			"byteLength":1272,
			"byteOffset":31608,
			"target":34962
		},
		{
			"buffer":0,
			"byteLength":1,
			"byteOffset":32880
		},
		{
			"buffer":0,
			"byteLength":12,
			"byteOffset":32884
		},
		{
			"buffer":0,
			"byteLength":1272,
			"byteOffset":32896,
			"target":34962
		},
		{
			"buffer":0,
			"byteLength":1272,
			"byteOffset":34168,
			"target":34962
		},
		{
			"buffer":0,
			"byteLength":1272,
			"byteOffset":35440,
			"target":34962
		},
		{
			"buffer":0,
			"byteLength":1272,
			"byteOffset":36712,
			"target":34962
		},
		{
			"buffer":0,
			"byteLength":1272,
			"byteOffset":37984,
			"target":34962
		},
		{
			"buffer":0,
			"byteLength":1272,
			"byteOffset":39256,
			"target":34962
		},
		{
			"buffer":0,
			"byteLength":1272,
			"byteOffset":40528,
			"target":34962
		},
		{
			"buffer":0,
			"byteLength":1272,
			"byteOffset":41800,
			"target":34962
		},
		{
			"buffer":0,
			"byteLength":1272,
			"byteOffset":43072,
			"target":34962
		},
		{
			"buffer":0,
			"byteLength":1272,
			"byteOffset":44344,
			"target":34962
		},
		{
			"buffer":0,
			"byteLength":1272,
			"byteOffset":45616,
			"target":34962
		},
		{
			"buffer":0,
			"byteLength":1,
			"byteOffset":46888
		},
		{
			"buffer":0,
			"byteLength":12,
			"byteOffset":46892
		},
		{
			"buffer":0,
			"byteLength":1272,
			"byteOffset":46904,
			"target":34962
		},
		{
			"buffer":0,
			"byteLength":1272,
			"byteOffset":48176,
			"target":34962
		},
		{
			"buffer":0,
			"byteLength":1272,
			"byteOffset":49448,
			"target":34962
		},
		{
			"buffer":0,
			"byteLength":1,
			"byteOffset":50720
		},
		{
			"buffer":0,
			"byteLength":12,
			"byteOffset":50724
		},
		{
			"buffer":0,
			"byteLength":1272,
			"byteOffset":50736,
			"target":34962
		},
		{
			"buffer":0,
			"byteLength":1272,
			"byteOffset":52008,
			"target":34962
		},
		{
			"buffer":0,
			"byteLength":1272,
			"byteOffset":53280,
			"target":34962
		},
		{
			"buffer":0,
			"byteLength":1272,
			"byteOffset":54552,
			"target":34962
		},
		{
			"buffer":0,
			"byteLength":1272,
			"byteOffset":55824,
			"target":34962
		},
		{
			"buffer":0,
			"byteLength":2160,
			"byteOffset":57096,
			"target":34962
		},
		{
			"buffer":0,
			"byteLength":2160,
			"byteOffset":59256,
			"target":34962
		},
		{
			"buffer":0,
			"byteLength":1440,
			"byteOffset":61416,
			"target":34962
		},
		{
			"buffer":0,
			"byteLength":816,
			"byteOffset":62856,
			"target":34963
		},
		{
			"buffer":0,
			"byteLength":1,
			"byteOffset":63672
		},
		{
			"buffer":0,
			"byteLength":12,
			"byteOffset":63676
		},
		{
			"buffer":0,
			"byteLength":88,
			"byteOffset":63688
		},
		{
			"buffer":0,
			"byteLength":1056,
			"byteOffset":63776
		},
		{
			"buffer":0,
			"byteLength":1,
			"byteOffset":64832
		},
		{
			"buffer":0,
			"byteLength":12,
			"byteOffset":64836
		},
		{
			"buffer":0,
			"byteLength":88,
			"byteOffset":64848
		},
		{
			"buffer":0,
			"byteLength":1056,
			"byteOffset":64936
		},
		{
			"buffer":0,
			"byteLength":1,
			"byteOffset":65992
		},
		{
			"buffer":0,
			"byteLength":12,
			"byteOffset":65996
		},
		{
			"buffer":0,
			"byteLength":88,
			"byteOffset":66008
		},
		{
			"buffer":0,
			"byteLength":1056,
			"byteOffset":66096
		},
		{
			"buffer":0,
			"byteLength":1,
			"byteOffset":67152
		},
		{
			"buffer":0,
			"byteLength":12,
			"byteOffset":67156
		},
		{
			"buffer":0,
			"byteLength":88,
			"byteOffset":67168
		},
		{
			"buffer":0,
			"byteLength":1056,
			"byteOffset":67256
		},
		{
			"buffer":0,
			"byteLength":90,
			"byteOffset":68312
		},
		{
			"buffer":0,
			"byteLength":1080,
			"byteOffset":68404
		},
		{
			"buffer":0,
			"byteLength":134,
			"byteOffset":69484
		},
		{
			"buffer":0,
			"byteLength":1608,
			"byteOffset":69620
		},
		{
			"buffer":0,
			"byteLength":90,
			"byteOffset":71228
		},
		{
			"buffer":0,
			"byteLength":1080,
			"byteOffset":71320
		},
		{
			"buffer":0,
			"byteLength":134,
			"byteOffset":72400
		},
		{
			"buffer":0,
			"byteLength":1608,
			"byteOffset":72536
		},
		{
			"buffer":0,
			"byteLength":90,
			"byteOffset":74144
		},
		{
			"buffer":0,
			"byteLength":1080,
			"byteOffset":74236
		},
		{
			"buffer":0,
			"byteLength":134,
			"byteOffset":75316
		},
		{
			"buffer":0,
			"byteLength":1608,
			"byteOffset":75452
		},
		{
			"buffer":0,
			"byteLength":90,
			"byteOffset":77060
		},
		{
			"buffer":0,
			"byteLength":1080,
			"byteOffset":77152
		},
		{
			"buffer":0,
			"byteLength":134,
			"byteOffset":78232
		},
		{
			"buffer":0,
			"byteLength":1608,
			"byteOffset":78368
		},
		{
			"buffer":0,
			"byteLength":90,
			"byteOffset":79976
		},
		{
			"buffer":0,
			"byteLength":1080,
			"byteOffset":80068
		},
		{
			"buffer":0,
			"byteLength":88,
			"byteOffset":81148
		},
		{
			"buffer":0,
			"byteLength":1056,
			"byteOffset":81236
		},
		{
			"buffer":0,
			"byteLength":90,
			"byteOffset":82292
		},
		{
			"buffer":0,
			"byteLength":1080,
			"byteOffset":82384
		},
		{
			"buffer":0,
			"byteLength":134,
			"byteOffset":83464
		},
		{
			"buffer":0,
			"byteLength":1608,
			"byteOffset":83600
		},
		{
			"buffer":0,
			"byteLength":90,
			"byteOffset":85208
		},
		{
			"buffer":0,
			"byteLength":1080,
			"byteOffset":85300
		},
		{
			"buffer":0,
			"byteLength":134,
			"byteOffset":86380
		},
		{
			"buffer":0,
			"byteLength":1608,
			"byteOffset":86516
		},
		{
			"buffer":0,
			"byteLength":90,
			"byteOffset":88124
		},
		{
			"buffer":0,
			"byteLength":1080,
			"byteOffset":88216
		},
		{
			"buffer":0,
			"byteLength":134,
			"byteOffset":89296
		},
		{
			"buffer":0,
			"byteLength":1608,
			"byteOffset":89432
		},
		{
			"buffer":0,
			"byteLength":90,
			"byteOffset":91040
		},
		{
			"buffer":0,
			"byteLength":1080,
			"byteOffset":91132
		},
		{
			"buffer":0,
			"byteLength":134,
			"byteOffset":92212
		},
		{
			"buffer":0,
			"byteLength":1608,
			"byteOffset":92348
		},
		{
			"buffer":0,
			"byteLength":90,
			"byteOffset":93956
		},
		{
			"buffer":0,
			"byteLength":1080,
			"byteOffset":94048
		},
		{
			"buffer":0,
			"byteLength":134,
			"byteOffset":95128
		},
		{
			"buffer":0,
			"byteLength":1608,
			"byteOffset":95264
		},
		{
			"buffer":0,
			"byteLength":1,
			"byteOffset":96872
		},
		{
			"buffer":0,
			"byteLength":12,
			"byteOffset":96876
		},
		{
			"buffer":0,
			"byteLength":88,
			"byteOffset":96888
		},
		{
			"buffer":0,
			"byteLength":1056,
			"byteOffset":96976
		},
		{
			"buffer":0,
			"byteLength":90,
			"byteOffset":98032
		},
		{
			"buffer":0,
			"byteLength":1080,
			"byteOffset":98124
		},
		{
			"buffer":0,
			"byteLength":134,
			"byteOffset":99204
		},
		{
			"buffer":0,
			"byteLength":1608,
			"byteOffset":99340
		},
		{
			"buffer":0,
			"byteLength":1,
			"byteOffset":100948
		},
		{
			"buffer":0,
			"byteLength":12,
			"byteOffset":100952
		},
		{
			"buffer":0,
			"byteLength":88,
			"byteOffset":100964
		},
		{
			"buffer":0,
			"byteLength":1056,
			"byteOffset":101052
		},
		{
			"buffer":0,
			"byteLength":90,
			"byteOffset":102108
		},
		{
			"buffer":0,
			"byteLength":1080,
			"byteOffset":102200
		},
		{
			"buffer":0,
			"byteLength":134,
			"byteOffset":103280
		},
		{
			"buffer":0,
			"byteLength":1608,
			"byteOffset":103416
		},
		{
			"buffer":0,
			"byteLength":90,
			"byteOffset":105024
		},
		{
			"buffer":0,
			"byteLength":1080,
			"byteOffset":105116
		},
		{
			"buffer":0,
			"byteLength":134,
			"byteOffset":106196
		},
		{
			"buffer":0,
			"byteLength":1608,
			"byteOffset":106332
		},
		{
			"buffer":0,
			"byteLength":16284,
			"byteOffset":107940,
			"target":34962
		},
		{
			"buffer":0,
			"byteLength":16284,
			"byteOffset":124224,
			"target":34962
		},
		{
			"buffer":0,
			"byteLength":10856,
			"byteOffset":140508,
			"target":34962
		},
		{
			"buffer":0,
			"byteLength":13980,
			"byteOffset":151364,
			"target":34963
		},
		{
			"buffer":0,
			"byteLength":190,
			"byteOffset":165344
		},
		{
			"buffer":0,
			"byteLength":1140,
			"byteOffset":165536
		},
		{
			"buffer":0,
			"byteLength":16284,
			"byteOffset":166676,
			"target":34962
		},
		{
			"buffer":0,
			"byteLength":196,
			"byteOffset":182960
		},
		{
			"buffer":0,
			"byteLength":1176,
			"byteOffset":183156
		},
		{
			"buffer":0,
			"byteLength":16284,
			"byteOffset":184332,
			"target":34962
		},
		{
			"buffer":0,
			"byteLength":126,
			"byteOffset":200616
		},
		{
			"buffer":0,
			"byteLength":756,
			"byteOffset":200744
		},
		{
			"buffer":0,
			"byteLength":16284,
			"byteOffset":201500,
			"target":34962
		},
		{
			"buffer":0,
			"byteLength":132,
			"byteOffset":217784
		},
		{
			"buffer":0,
			"byteLength":792,
			"byteOffset":217916
		},
		{
			"buffer":0,
			"byteLength":16284,
			"byteOffset":218708,
			"target":34962
		},
		{
			"buffer":0,
			"byteLength":846,
			"byteOffset":234992
		},
		{
			"buffer":0,
			"byteLength":5076,
			"byteOffset":235840
		},
		{
			"buffer":0,
			"byteLength":16284,
			"byteOffset":240916,
			"target":34962
		},
		{
			"buffer":0,
			"byteLength":740,
			"byteOffset":257200
		},
		{
			"buffer":0,
			"byteLength":4440,
			"byteOffset":257940
		},
		{
			"buffer":0,
			"byteLength":16284,
			"byteOffset":262380,
			"target":34962
		},
		{
			"buffer":0,
			"byteLength":902,
			"byteOffset":278664
		},
		{
			"buffer":0,
			"byteLength":5412,
			"byteOffset":279568
		},
		{
			"buffer":0,
			"byteLength":16284,
			"byteOffset":284980,
			"target":34962
		},
		{
			"buffer":0,
			"byteLength":854,
			"byteOffset":301264
		},
		{
			"buffer":0,
			"byteLength":5124,
			"byteOffset":302120
		},
		{
			"buffer":0,
			"byteLength":16284,
			"byteOffset":307244,
			"target":34962
		},
		{
			"buffer":0,
			"byteLength":744,
			"byteOffset":323528
		},
		{
			"buffer":0,
			"byteLength":4464,
			"byteOffset":324272
		},
		{
			"buffer":0,
			"byteLength":16284,
			"byteOffset":328736,
			"target":34962
		},
		{
			"buffer":0,
			"byteLength":546,
			"byteOffset":345020
		},
		{
			"buffer":0,
			"byteLength":3276,
			"byteOffset":345568
		},
		{
			"buffer":0,
			"byteLength":16284,
			"byteOffset":348844,
			"target":34962
		},
		{
			"buffer":0,
			"byteLength":608,
			"byteOffset":365128
		},
		{
			"buffer":0,
			"byteLength":3648,
			"byteOffset":365736
		},
		{
			"buffer":0,
			"byteLength":16284,
			"byteOffset":369384,
			"target":34962
		},
		{
			"buffer":0,
			"byteLength":546,
			"byteOffset":385668
		},
		{
			"buffer":0,
			"byteLength":3276,
			"byteOffset":386216
		},
		{
			"buffer":0,
			"byteLength":16284,
			"byteOffset":389492,
			"target":34962
		},
		{
			"buffer":0,
			"byteLength":846,
			"byteOffset":405776
		},
		{
			"buffer":0,
			"byteLength":5076,
			"byteOffset":406624
		},
		{
			"buffer":0,
			"byteLength":16284,
			"byteOffset":411700,
			"target":34962
		},
		{
			"buffer":0,
			"byteLength":854,
			"byteOffset":427984
		},
		{
			"buffer":0,
			"byteLength":5124,
			"byteOffset":428840
		},
		{
			"buffer":0,
			"byteLength":16284,
			"byteOffset":433964,
			"target":34962
		},
		{
			"buffer":0,
			"byteLength":508,
			"byteOffset":450248
		},
		{
			"buffer":0,
			"byteLength":3048,
			"byteOffset":450756
		},
		{
			"buffer":0,
			"byteLength":16284,
			"byteOffset":453804,
			"target":34962
		},
		{
			"buffer":0,
			"byteLength":740,
			"byteOffset":470088
		},
		{
			"buffer":0,
			"byteLength":4440,
			"byteOffset":470828
		},
		{
			"buffer":0,
			"byteLength":16284,
			"byteOffset":475268,
			"target":34962
		},
		{
			"buffer":0,
			"byteLength":1,
			"byteOffset":491552
		},
		{
			"buffer":0,
			"byteLength":12,
			"byteOffset":491556
		},
		{
			"buffer":0,
			"byteLength":16284,
			"byteOffset":491568,
			"target":34962
		},
		{
			"buffer":0,
			"byteLength":854,
			"byteOffset":507852
		},
		{
			"buffer":0,
			"byteLength":5124,
			"byteOffset":508708
		},
		{
			"buffer":0,
			"byteLength":16284,
			"byteOffset":513832,
			"target":34962
		},
		{
			"buffer":0,
			"byteLength":546,
			"byteOffset":530116
		},
		{
			"buffer":0,
			"byteLength":3276,
			"byteOffset":530664
		},
		{
			"buffer":0,
			"byteLength":16284,
			"byteOffset":533940,
			"target":34962
		},
		{
			"buffer":0,
			"byteLength":3048,
			"byteOffset":550224,
			"target":34962
		},
		{
			"buffer":0,
			"byteLength":3048,
			"byteOffset":553272,
			"target":34962
		},
		{
			"buffer":0,
			"byteLength":2032,
			"byteOffset":556320,
			"target":34962
		},
		{
			"buffer":0,
			"byteLength":2592,
			"byteOffset":558352,
			"target":34963
		},
		{
			"buffer":0,
			"byteLength":408,
			"byteOffset":560944,
			"target":34962
		},
		{
			"buffer":0,
			"byteLength":408,
			"byteOffset":561352,
			"target":34962
		},
		{
			"buffer":0,
			"byteLength":272,
			"byteOffset":561760,
			"target":34962
		},
		{
			"buffer":0,
			"byteLength":192,
			"byteOffset":562032,
			"target":34963
		},
		{
			"buffer":0,
			"byteLength":396,
			"byteOffset":562224,
			"target":34962
		},
		{
			"buffer":0,
			"byteLength":396,
			"byteOffset":562620,
			"target":34962
		},
		{
			"buffer":0,
			"byteLength":264,
			"byteOffset":563016,
			"target":34962
		},
		{
			"buffer":0,
			"byteLength":96,
			"byteOffset":563280,
			"target":34963
		}
	],
	"buffers":[
		{
			"byteLength":563376,
			"uri":"dummy.bin"
		}
	]
}
