{
  "accessors": [
    {
      "bufferView": 3,
      "componentType": 5126,
      "count": 350,
      "max": [
        0.09013999998569489,
        -0.06925000250339508,
        1.0426299571990967
      ],
      "min": [
        -0.09007000178098679,
        -0.1218700036406517,
        0.914680004119873
      ],
      "type": "VEC3"
    },
    {
      "bufferView": 3,
      "byteOffset": 4200,
      "componentType": 5126,
      "count": 350,
      "max": [
        0.9977408051490784,
        0.9997970461845398,
        0.9843491315841675
      ],
      "min": [
        -0.9954702258110046,
        -0.9857217073440552,
        -0.9892506003379822
      ],
      "type": "VEC3"
    },
    {
      "bufferView": 2,
      "componentType": 5126,
      "count": 350,
      "max": [
        0.6668599843978882,
        0.986810028553009
      ],
      "min": [
        0.007550000213086605,
        0.8020399808883667
      ],
      "type": "VEC2"
    },
    {
      "bufferView": 1,
      "componentType": 5125,
      "count": 1338,
      "type": "SCALAR"
    },
    {
      "bufferView": 3,
      "byteOffset": 8400,
      "componentType": 5126,
      "count": 162,
      "max": [
        0.024219999089837074,
        -0.10649999976158142,
        0.9220899939537048
      ],
      "min": [
        -0.025310000404715538,
        -0.11935000121593475,
        0.9146299958229065
      ],
      "type": "VEC3"
    },
    {
      "bufferView": 3,
      "byteOffset": 10344,
      "componentType": 5126,
      "count": 162,
      "max": [
        0.7549442648887634,
        0.17076890170574188,
        0.9524454474449158
      ],
      "min": [
        -0.7549436688423157,
        -0.9975147247314453,
        -0.999954342842102
      ],
      "type": "VEC3"
    },
    {
      "bufferView": 2,
      "byteOffset": 2800,
      "componentType": 5126,
      "count": 162,
      "max": [
        0.09261000156402588,
        0.7810699939727783
      ],
      "min": [
        0.017009999603033066,
        0.7519999742507935
      ],
      "type": "VEC2"
    },
    {
      "bufferView": 1,
      "byteOffset": 5352,
      "componentType": 5125,
      "count": 792,
      "type": "SCALAR"
    },
    {
      "bufferView": 3,
      "byteOffset": 12288,
      "componentType": 5126,
      "count": 129,
      "max": [
        0.029360000044107437,
        -0.10649999976158142,
        0.9231899976730347
      ],
      "min": [
        -0.03044999949634075,
        -0.12399999797344208,
        0.9146299958229065
      ],
      "type": "VEC3"
    },
    {
      "bufferView": 3,
      "byteOffset": 13836,
      "componentType": 5126,
      "count": 129,
      "max": [
        0.9673989415168762,
        0.9762049913406372,
        0.9999838471412659
      ],
      "min": [
        -0.9677133560180664,
        -0.9925121068954468,
        -0.9910257458686829
      ],
      "type": "VEC3"
    },
    {
      "bufferView": 2,
      "byteOffset": 4096,
      "componentType": 5126,
      "count": 129,
      "max": [
        0.08895000070333481,
        0.9884399771690369
      ],
      "min": [
        0.009440000168979168,
        0.9191300272941589
      ],
      "type": "VEC2"
    },
    {
      "bufferView": 1,
      "byteOffset": 8520,
      "componentType": 5125,
      "count": 342,
      "type": "SCALAR"
    },
    {
      "bufferView": 3,
      "byteOffset": 15384,
      "componentType": 5126,
      "count": 6573,
      "max": [
        0.1317799985408783,
        0.11065000295639038,
        1.1528899669647217
      ],
      "min": [
        -0.1317099928855896,
        -0.15000000596046448,
        0.8163700103759766
      ],
      "type": "VEC3"
    },
    {
      "bufferView": 3,
      "byteOffset": 94260,
      "componentType": 5126,
      "count": 6573,
      "max": [
        0.9999754428863525,
        0.9995310306549072,
        0.9988625645637512
      ],
      "min": [
        -0.9999754428863525,
        -0.9999608993530273,
        -0.9994754195213318
      ],
      "type": "VEC3"
    },
    {
      "bufferView": 2,
      "byteOffset": 5128,
      "componentType": 5126,
      "count": 6573,
      "max": [
        0.956570029258728,
        0.9722399711608887
      ],
      "min": [
        0.010060000233352184,
        0.007600000128149986
      ],
      "type": "VEC2"
    },
    {
      "bufferView": 1,
      "byteOffset": 9888,
      "componentType": 5125,
      "count": 37257,
      "type": "SCALAR"
    },
    {
      "bufferView": 3,
      "byteOffset": 173136,
      "componentType": 5126,
      "count": 146,
      "max": [
        0.07621999830007553,
        -0.08764000236988068,
        1.0380100011825562
      ],
      "min": [
        -0.07615000009536743,
        -0.09980999678373337,
        0.9864100217819214
      ],
      "type": "VEC3"
    },
    {
      "bufferView": 3,
      "byteOffset": 174888,
      "componentType": 5126,
      "count": 146,
      "max": [
        0.2311406135559082,
        -0.956813633441925,
        -0.13273759186267853
      ],
      "min": [
        -0.23114053905010223,
        -0.9656647443771362,
        -0.1901819109916687
      ],
      "type": "VEC3"
    },
    {
      "bufferView": 2,
      "byteOffset": 57712,
      "componentType": 5126,
      "count": 146,
      "max": [
        0.33469000458717346,
        0.9920200109481812
      ],
      "min": [
        0.1290999948978424,
        0.8629000186920166
      ],
      "type": "VEC2"
    },
    {
      "bufferView": 1,
      "byteOffset": 158916,
      "componentType": 5125,
      "count": 672,
      "type": "SCALAR"
    },
    {
      "bufferView": 3,
      "byteOffset": 176640,
      "componentType": 5126,
      "count": 98,
      "max": [
        0.09621000289916992,
        -0.08619999885559082,
        1.0650700330734253
      ],
      "min": [
        -0.09613999724388123,
        -0.12349999696016312,
        1.0190500020980835
      ],
      "type": "VEC3"
    },
    {
      "bufferView": 3,
      "byteOffset": 177816,
      "componentType": 5126,
      "count": 98,
      "max": [
        0.5630271434783936,
        -0.7536430358886719,
        0.05419711768627167
      ],
      "min": [
        -0.5630272626876831,
        -0.9888609051704407,
        -0.5536842942237854
      ],
      "type": "VEC3"
    },
    {
      "bufferView": 2,
      "byteOffset": 58880,
      "componentType": 5126,
      "count": 98,
      "max": [
        0.5031700134277344,
        0.8756800293922424
      ],
      "min": [
        0.0048500001430511475,
        0.7931100130081177
      ],
      "type": "VEC2"
    },
    {
      "bufferView": 1,
      "byteOffset": 161604,
      "componentType": 5125,
      "count": 258,
      "type": "SCALAR"
    },
    {
      "bufferView": 5,
      "componentType": 5126,
      "count": 8,
      "max": [
        1.0,
        0.041519999504089355,
        0.27660998702049255,
        0.0,
        0.0,
        1.0,
        0.1808999925851822,
        0.0,
        0.27847999334335327,
        0.9971699714660645,
        1.0,
        0.0,
        0.05770999938249588,
        0.05861999839544296,
        1.0081000328063965,
        1.0
      ],
      "min": [
        0.9603999853134155,
        -0.010250000283122063,
        -0.008009999990463257,
        0.0,
        -0.0177800003439188,
        -0.9998800158500671,
        -0.9972299933433533,
        0.0,
        -0.008009999990463257,
        -0.17645999789237976,
        -0.9998800158500671,
        0.0,
        -0.25655999779701233,
        -0.8896499872207642,
        0.0,
        1.0
      ],
      "type": "MAT4"
    },
    {
      "bufferView": 0,
      "componentType": 5123,
      "count": 350,
      "type": "VEC4"
    },
    {
      "bufferView": 4,
      "componentType": 5126,
      "count": 350,
      "max": [
        1.0,
        0.38461095094680786,
        0.23264336585998535,
        0.0
      ],
      "min": [
        0.3836783468723297,
        0.0,
        0.0,
        0.0
      ],
      "type": "VEC4"
    },
    {
      "bufferView": 0,
      "byteOffset": 2800,
      "componentType": 5123,
      "count": 162,
      "type": "VEC4"
    },
    {
      "bufferView": 4,
      "byteOffset": 5600,
      "componentType": 5126,
      "count": 162,
      "max": [
        1.0,
        0.5,
        0.23171626031398773,
        0.14316599071025848
      ],
      "min": [
        0.387729674577713,
        0.0,
        0.0,
        0.0
      ],
      "type": "VEC4"
    },
    {
      "bufferView": 0,
      "byteOffset": 4096,
      "componentType": 5123,
      "count": 129,
      "type": "VEC4"
    },
    {
      "bufferView": 4,
      "byteOffset": 8192,
      "componentType": 5126,
      "count": 129,
      "max": [
        0.3880225419998169,
        0.3880225419998169,
        0.24145883321762085,
        0.0
      ],
      "min": [
        0.3792705833911896,
        0.3792705833911896,
        0.223954975605011,
        0.0
      ],
      "type": "VEC4"
    },
    {
      "bufferView": 0,
      "byteOffset": 5128,
      "componentType": 5123,
      "count": 6573,
      "type": "VEC4"
    },
    {
      "bufferView": 4,
      "byteOffset": 10256,
      "componentType": 5126,
      "count": 6573,
      "max": [
        1.0,
        0.4990462362766266,
        0.0,
        0.0
      ],
      "min": [
        0.5009537935256958,
        0.0,
        0.0,
        0.0
      ],
      "type": "VEC4"
    },
    {
      "bufferView": 0,
      "byteOffset": 57712,
      "componentType": 5123,
      "count": 146,
      "type": "VEC4"
    },
    {
      "bufferView": 4,
      "byteOffset": 115424,
      "componentType": 5126,
      "count": 146,
      "max": [
        0.5,
        0.5,
        0.0,
        0.0
      ],
      "min": [
        0.5,
        0.5,
        0.0,
        0.0
      ],
      "type": "VEC4"
    },
    {
      "bufferView": 0,
      "byteOffset": 58880,
      "componentType": 5123,
      "count": 98,
      "type": "VEC4"
    },
    {
      "bufferView": 4,
      "byteOffset": 117760,
      "componentType": 5126,
      "count": 98,
      "max": [
        1.0,
        0.0,
        0.0,
        0.0
      ],
      "min": [
        1.0,
        0.0,
        0.0,
        0.0
      ],
      "type": "VEC4"
    }
  ],
  "asset": {
    "extras": {
      "author": "cupcakewarp (https://sketchfab.com/cupcakewarp)",
      "license": "CC-BY-4.0 (http://creativecommons.org/licenses/by/4.0/)",
      "source": "https://sketchfab.com/3d-models/cpckwp-face-86dbff23ee1d45e8bec87c0804a59e59",
      "title": "CPCKWP Face"
    },
    "generator": "Sketchfab-12.68.0",
    "version": "2.0"
  },
  "bufferViews": [
    {
      "buffer": 0,
      "byteLength": 59664,
      "byteStride": 8,
      "name": "shortBufferViews",
      "target": 34962
    },
    {
      "buffer": 0,
      "byteLength": 162636,
      "byteOffset": 59664,
      "name": "floatBufferViews",
      "target": 34963
    },
    {
      "buffer": 0,
      "byteLength": 59664,
      "byteOffset": 222300,
      "byteStride": 8,
      "name": "floatBufferViews",
      "target": 34962
    },
    {
      "buffer": 0,
      "byteLength": 178992,
      "byteOffset": 281964,
      "byteStride": 12,
      "name": "floatBufferViews",
      "target": 34962
    },
    {
      "buffer": 0,
      "byteLength": 119328,
      "byteOffset": 460956,
      "byteStride": 16,
      "name": "floatBufferViews",
      "target": 34962
    },
    {
      "buffer": 0,
      "byteLength": 512,
      "byteOffset": 580284,
      "name": "floatBufferViews"
    }
  ],
  "buffers": [
    {
      "byteLength": 580796,
      "uri": "scene.bin"
    }
  ],
  "extensionsUsed": [
    "KHR_materials_unlit"
  ],
  "images": [
    {
      "uri": "textures/MaterialwHITE_baseColor.png"
    }
  ],
  "materials": [
    {
      "doubleSided": true,
      "emissiveFactor": [
        0.626905487804878,
        0.626905487804878,
        0.626905487804878
      ],
      "extensions": {
        "KHR_materials_unlit": {}
      },
      "name": "MaterialwHITE",
      "pbrMetallicRoughness": {
        "baseColorTexture": {
          "index": 0
        },
        "metallicFactor": 0.0
      }
    },
    {
      "doubleSided": true,
      "extensions": {
        "KHR_materials_unlit": {}
      },
      "name": "Tongue",
      "pbrMetallicRoughness": {
        "baseColorTexture": {
          "index": 0
        },
        "metallicFactor": 0.0
      }
    },
    {
      "doubleSided": true,
      "extensions": {
        "KHR_materials_unlit": {}
      },
      "name": "Inner_Mouth",
      "pbrMetallicRoughness": {
        "baseColorFactor": [
          0.640000066757203,
          0.1825032738224158,
          0.23023410186520366,
          1.0
        ],
        "metallicFactor": 0.0
      }
    },
    {
      "doubleSided": true,
      "extensions": {
        "KHR_materials_unlit": {}
      },
      "name": "Material.003",
      "pbrMetallicRoughness": {
        "baseColorTexture": {
          "index": 0
        },
        "metallicFactor": 0.0
      }
    },
    {
      "doubleSided": true,
      "emissiveFactor": [
        1.0,
        1.0,
        1.0
      ],
      "emissiveTexture": {
        "index": 0
      },
      "extensions": {
        "KHR_materials_unlit": {}
      },
      "name": "Eyes",
      "pbrMetallicRoughness": {
        "baseColorTexture": {
          "index": 0
        },
        "metallicFactor": 0.0
      }
    },
    {
      "doubleSided": true,
      "extensions": {
        "KHR_materials_unlit": {}
      },
      "name": "Material.002",
      "pbrMetallicRoughness": {
        "baseColorTexture": {
          "index": 0
        },
        "metallicFactor": 0.0
      }
    }
  ],
  "meshes": [
    {
      "name": "Body_0",
      "primitives": [
        {
          "attributes": {
            "JOINTS_0": 25,
            "NORMAL": 1,
            "POSITION": 0,
            "TEXCOORD_0": 2,
            "WEIGHTS_0": 26
          },
          "indices": 3,
          "material": 0,
          "mode": 4
        }
      ]
    },
    {
      "name": "Body_1",
      "primitives": [
        {
          "attributes": {
            "JOINTS_0": 27,
            "NORMAL": 5,
            "POSITION": 4,
            "TEXCOORD_0": 6,
            "WEIGHTS_0": 28
          },
          "indices": 7,
          "material": 1,
          "mode": 4
        }
      ]
    },
    {
      "name": "Body_2",
      "primitives": [
        {
          "attributes": {
            "JOINTS_0": 29,
            "NORMAL": 9,
            "POSITION": 8,
            "TEXCOORD_0": 10,
            "WEIGHTS_0": 30
          },
          "indices": 11,
          "material": 2,
          "mode": 4
        }
      ]
    },
    {
      "name": "Body_3",
      "primitives": [
        {
          "attributes": {
            "JOINTS_0": 31,
            "NORMAL": 13,
            "POSITION": 12,
            "TEXCOORD_0": 14,
            "WEIGHTS_0": 32
          },
          "indices": 15,
          "material": 3,
          "mode": 4
        }
      ]
    },
    {
      "name": "Body_4",
      "primitives": [
        {
          "attributes": {
            "JOINTS_0": 33,
            "NORMAL": 17,
            "POSITION": 16,
            "TEXCOORD_0": 18,
            "WEIGHTS_0": 34
          },
          "indices": 19,
          "material": 4,
          "mode": 4
        }
      ]
    },
    {
      "name": "Body_5",
      "primitives": [
        {
          "attributes": {
            "JOINTS_0": 35,
            "NORMAL": 21,
            "POSITION": 20,
            "TEXCOORD_0": 22,
            "WEIGHTS_0": 36
          },
          "indices": 23,
          "material": 5,
          "mode": 4
        }
      ]
    }
  ],
  "nodes": [
    {
      "children": [
        1
      ],
      "matrix": [
        1.0630669593811035,
        0.0,
        0.0,
        0.0,
        0.0,
        2.3604828300463144e-16,
        -1.0630669593811035,
        0.0,
        0.0,
        1.0630669593811035,
        2.3604828300463144e-16,
        0.0,
        0.0,
        0.0,
        0.0,
        1.0
      ],
      "name": "Sketchfab_model"
    },
    {
      "children": [
        2
      ],
      "name": "Root"
    },
    {
      "children": [
        3,
        12,
        13,
        14,
        15,
        16,
        17,
        11
      ],
      "name": "Armature"
    },
    {
      "children": [
        4,
        10
      ],
      "name": "Armature_rootJoint"
    },
    {
      "children": [
        5,
        8,
        9
      ],
      "name": "Head_Armature",
      "rotation": [
        0.7329422235488892,
        -0.003626469522714615,
        0.00362645136192441,
        0.680271565914154
      ],
      "scale": [
        1.0000020265579224,
        0.999994158744812,
        1.0000073909759521
      ],
      "translation": [
        0.00039999998989515007,
        -0.018859999254345894,
        0.8907700181007385
      ]
    },
    {
      "children": [
        6
      ],
      "name": "Tongue_1_Armature",
      "rotation": [
        0.7372270822525024,
        0.1017703041434288,
        0.08960944414138794,
        0.661898136138916
      ],
      "scale": [
        1.0000050067901611,
        1.0000038146972656,
        0.9999985098838806
      ],
      "translation": [
        -0.0009200000204145908,
        0.03466000035405159,
        0.08408000320196152
      ]
    },
    {
      "children": [
        7
      ],
      "name": "Tongue_2_Armature",
      "rotation": [
        0.0011575110256671906,
        -0.0005250059766694903,
        -0.0041700550355017185,
        0.9999905228614807
      ],
      "scale": [
        0.9999947547912598,
        0.9999979734420776,
        1.0000033378601074
      ],
      "translation": [
        -2.9999999242136255e-05,
        0.005309999920427799,
        5.999999848427251e-05
      ]
    },
    {
      "name": "Tongue_3_Armature",
      "rotation": [
        -1.4999999621068127e-05,
        4.999999873689376e-06,
        -4.999999873689376e-06,
        1.0
      ],
      "scale": [
        1.0,
        1.0,
        1.0
      ],
      "translation": [
        -5.999999848427251e-05,
        0.005489999894052744,
        0.00013000000035390258
      ]
    },
    {
      "name": "Eye_L_Armature",
      "rotation": [
        0.6744605302810669,
        -0.003593985689803958,
        -0.003650655271485448,
        0.7382932305335999
      ],
      "scale": [
        1.000001072883606,
        1.0000063180923462,
        0.9999967813491821
      ],
      "translation": [
        0.05824999883770943,
        0.12193000316619873,
        0.04751000180840492
      ]
    },
    {
      "name": "Eye_R_Armature",
      "rotation": [
        0.6744604110717773,
        -0.003601048607379198,
        -0.003657718189060688,
        0.7382931709289551
      ],
      "scale": [
        1.0000003576278687,
        1.0000072717666626,
        0.9999969601631165
      ],
      "translation": [
        -0.056859999895095825,
        0.12310999631881714,
        0.04746999964118004
      ]
    },
    {
      "name": "Neck_Armature",
      "rotation": [
        0.828902006149292,
        0.0,
        -0.0048301746137440205,
        0.5593730211257935
      ],
      "scale": [
        1.0000007152557373,
        0.9999917149543762,
        1.0000025033950806
      ],
      "translation": [
        0.0,
        0.009180000051856041,
        0.8212699890136719
      ]
    },
    {
      "name": "Body"
    },
    {
      "mesh": 0,
      "name": "Body_0",
      "skin": 0
    },
    {
      "mesh": 1,
      "name": "Body_1",
      "skin": 0
    },
    {
      "mesh": 2,
      "name": "Body_2",
      "skin": 0
    },
    {
      "mesh": 3,
      "name": "Body_3",
      "skin": 0
    },
    {
      "mesh": 4,
      "name": "Body_4",
      "skin": 0
    },
    {
      "mesh": 5,
      "name": "Body_5",
      "skin": 0
    }
  ],
  "samplers": [
    {
      "magFilter": 9729,
      "minFilter": 9987,
      "wrapS": 10497,
      "wrapT": 10497
    }
  ],
  "scene": 0,
  "scenes": [
    {
      "name": "Sketchfab_Scene",
      "nodes": [
        0
      ]
    }
  ],
  "skins": [
    {
      "inverseBindMatrices": 24,
      "joints": [
        3,
        4,
        5,
        6,
        7,
        8,
        9,
        10
      ],
      "skeleton": 3
    }
  ],
  "textures": [
    {
      "sampler": 0,
      "source": 0
    }
  ]
}
